<?xml version="1.0" encoding="utf-8"?>
<!-- Generator: Adobe Illustrator 23.0.4, SVG Export Plug-In . SVG Version: 6.00 Build 0)  -->
<svg version="1.1" id="Layer_1" xmlns="http://www.w3.org/2000/svg" xmlns:xlink="http://www.w3.org/1999/xlink" x="0px" y="0px"
	 viewBox="0 0 707.5 229.5" style="enable-background:new 0 0 707.5 229.5;" xml:space="preserve">
<style type="text/css">
	.st0{fill:#FFFFFF;}
</style>
<g>
	<defs>
		<path id="SVGID_1_" d="M45.4,229.5c-1.8,0-3.6,0-5.4-0.1c-3.8,0-7.5-0.4-11.2-1c-3.5-0.6-6.8-1.7-9.9-3.3
			c-3.1-1.6-5.9-3.6-8.4-6.1c-2.5-2.4-4.6-5.3-6.1-8.4c-1.6-3.1-2.7-6.5-3.3-9.9c-0.6-3.7-1-7.5-1-11.2C0,188.2,0,184,0,184V45.4
			c0,0,0.1-4.1,0.1-5.4c0-3.8,0.4-7.5,1-11.2c0.6-3.5,1.7-6.8,3.3-10c1.6-3.1,3.6-5.9,6.1-8.4c2.5-2.5,5.3-4.5,8.4-6.1
			c3.1-1.6,6.5-2.7,9.9-3.3c3.7-0.6,7.5-0.9,11.3-1L45.4,0H662l5.5,0.1c3.7,0,7.5,0.4,11.2,1c3.5,0.6,6.9,1.7,10,3.3
			c6.2,3.2,11.3,8.3,14.5,14.5c1.6,3.1,2.6,6.5,3.2,9.9c0.6,3.7,1,7.5,1,11.3c0,1.7,0,3.5,0,5.3c0,2.2,0,4.4,0,6.6v125.6
			c0,2.2,0,4.3,0,6.5c0,2,0,3.7,0,5.6c-0.1,3.7-0.4,7.4-1,11.1c-0.6,3.5-1.7,6.9-3.2,10c-1.6,3.1-3.6,5.9-6.1,8.3
			c-2.5,2.5-5.3,4.6-8.4,6.1c-3.2,1.6-6.5,2.7-10,3.3c-3.7,0.6-7.5,0.9-11.2,1c-1.8,0-3.6,0.1-5.4,0.1l-6.5,0L45.4,229.5L45.4,229.5
			z"/>
	</defs>
	<use xlink:href="#SVGID_1_"  style="overflow:visible;"/>
	<clipPath id="SVGID_2_">
		<use xlink:href="#SVGID_1_"  style="overflow:visible;"/>
	</clipPath>
</g>
<g>
	<defs>
		<path id="SVGID_3_" d="M248.6,157.6h-28.4l-6.8,20.1h-12l26.9-74.5h12.5l26.9,74.5h-12.2L248.6,157.6L248.6,157.6z M223.1,148.3
			h22.5l-11.1-32.7h-0.3L223.1,148.3L223.1,148.3z M325.7,150.6c0,16.9-9,27.7-22.7,27.7c-7,0.4-13.7-3.3-17.1-9.5h-0.3v26.9h-11.2
			v-72.3h10.8v9h0.2c3.6-6.1,10.2-9.8,17.3-9.6C316.6,122.8,325.7,133.7,325.7,150.6L325.7,150.6z M314.3,150.6
			c0-11-5.7-18.2-14.4-18.2c-8.5,0-14.2,7.4-14.2,18.2c0,10.9,5.7,18.3,14.2,18.3C308.6,168.8,314.3,161.7,314.3,150.6L314.3,150.6z
			 M385.5,150.6c0,16.9-9,27.7-22.7,27.7c-7,0.4-13.7-3.3-17.1-9.5h-0.3v26.9h-11.2v-72.3h10.8v9h0.2c3.6-6.1,10.2-9.8,17.3-9.6
			C376.4,122.8,385.5,133.7,385.5,150.6L385.5,150.6z M374,150.6c0-11-5.7-18.2-14.4-18.2c-8.5,0-14.2,7.4-14.2,18.2
			c0,10.9,5.7,18.3,14.2,18.3C368.4,168.8,374,161.7,374,150.6L374,150.6L374,150.6z M425,157c0.8,7.4,8,12.2,17.8,12.2
			c9.4,0,16.2-4.9,16.2-11.5c0-5.8-4.1-9.2-13.7-11.6l-9.7-2.3c-13.7-3.3-20-9.7-20-20.1c0-12.9,11.2-21.7,27.1-21.7
			c15.7,0,26.5,8.8,26.9,21.7h-11.3c-0.7-7.4-6.8-11.9-15.8-11.9s-15.1,4.5-15.1,11.2c0,5.3,3.9,8.4,13.5,10.7l8.2,2
			c15.3,3.6,21.6,9.8,21.6,20.7c0,13.9-11.1,22.7-28.8,22.7c-16.5,0-27.7-8.5-28.4-22L425,157L425,157z M494.8,110.5v12.9h10.3v8.8
			h-10.3v29.9c0,4.7,2.1,6.8,6.6,6.8c1.2,0,2.5-0.1,3.7-0.3v8.8c-2,0.4-4.1,0.6-6.2,0.5c-11,0-15.3-4.1-15.3-14.7v-31.1h-7.9v-8.8
			h7.9v-12.9H494.8L494.8,110.5z M511.2,150.6c0-17.1,10.1-27.8,25.8-27.8c15.8,0,25.8,10.7,25.8,27.8c0,17.1-10,27.8-25.8,27.8
			C521.1,178.4,511.2,167.7,511.2,150.6L511.2,150.6z M551.3,150.6c0-11.7-5.4-18.6-14.4-18.6s-14.4,7-14.4,18.6
			c0,11.8,5.4,18.6,14.4,18.6S551.3,162.3,551.3,150.6L551.3,150.6L551.3,150.6z M571.9,123.4h10.6v9.2h0.3c1.5-6,6.9-10,13.1-9.8
			c1.3,0,2.6,0.1,3.8,0.4v10.4c-1.6-0.5-3.3-0.7-5-0.7c-3.3-0.1-6.5,1.2-8.7,3.6c-2.2,2.4-3.3,5.7-2.9,8.9v32.2h-11.2L571.9,123.4
			L571.9,123.4z M651.1,161.8c-1.5,9.9-11.1,16.6-23.4,16.6c-15.8,0-25.6-10.6-25.6-27.6c0-17,9.9-28.1,25.1-28.1
			c15,0,24.5,10.3,24.5,26.8v3.8h-38.4v0.7c-0.4,4,1,8,3.8,11c2.8,2.9,6.7,4.5,10.8,4.4c5.4,0.5,10.5-2.6,12.5-7.6L651.1,161.8
			L651.1,161.8z M613.4,145.6l27.2,0c0.2-3.6-1.1-7.2-3.6-9.8c-2.5-2.6-6-4.1-9.7-4c-3.7,0-7.2,1.4-9.8,4S613.4,141.9,613.4,145.6
			L613.4,145.6z"/>
	</defs>
	<use xlink:href="#SVGID_3_"  style="overflow:visible;fill:#FFFFFF;"/>
	<clipPath id="SVGID_4_">
		<use xlink:href="#SVGID_3_"  style="overflow:visible;"/>
	</clipPath>
</g>
<g>
	<defs>
		<path id="SVGID_5_" d="M221.7,47.1c4.7-0.3,9.4,1.5,12.6,4.9c3.3,3.4,4.8,8.2,4.2,12.9c0,11.4-6.2,18-16.8,18h-12.9V47.1H221.7
			L221.7,47.1z M214.3,77.9h6.8c3.4,0.2,6.7-1.1,9-3.6c2.3-2.5,3.3-5.9,2.8-9.2c0.5-3.3-0.6-6.7-2.9-9.2c-2.3-2.5-5.6-3.8-8.9-3.6
			h-6.8V77.9L214.3,77.9z M244.8,69.4c-0.5-4.8,1.9-9.5,6-12.1c4.1-2.6,9.4-2.6,13.5,0c4.1,2.6,6.5,7.3,6,12.1
			c0.5,4.8-1.8,9.5-6,12.1c-4.1,2.6-9.4,2.6-13.5,0C246.7,79,244.4,74.3,244.8,69.4L244.8,69.4z M264.8,69.4c0-5.9-2.6-9.3-7.2-9.3
			c-4.6,0-7.2,3.4-7.2,9.3c0,5.9,2.6,9.3,7.2,9.3C262.2,78.7,264.8,75.3,264.8,69.4L264.8,69.4L264.8,69.4z M304.2,82.9h-5.5
			L293.1,63h-0.4l-5.6,19.9h-5.5l-7.4-27h5.4l4.8,20.6h0.4l5.6-20.6h5.1l5.6,20.6h0.4l4.8-20.6h5.3L304.2,82.9L304.2,82.9z
			 M317.9,55.9h5.1v4.3h0.4c1.4-3.2,4.6-5.1,8.1-4.8c2.7-0.2,5.3,0.8,7.1,2.8c1.8,2,2.7,4.6,2.3,7.3v17.5h-5.3V66.8
			c0-4.3-1.9-6.5-5.8-6.5c-1.8-0.1-3.6,0.6-4.8,1.9s-1.8,3.1-1.7,4.9v15.8h-5.3L317.9,55.9L317.9,55.9z M349.3,45.4h5.3v37.6h-5.3
			V45.4L349.3,45.4z M362.1,69.4c-0.5-4.8,1.9-9.5,6-12.1c4.1-2.6,9.4-2.6,13.5,0s6.5,7.3,6,12.1c0.5,4.8-1.8,9.5-6,12.1
			s-9.4,2.6-13.5,0S361.6,74.3,362.1,69.4L362.1,69.4z M382.1,69.4c0-5.9-2.6-9.3-7.2-9.3c-4.6,0-7.2,3.4-7.2,9.3
			c0,5.9,2.6,9.3,7.2,9.3C379.4,78.7,382.1,75.3,382.1,69.4L382.1,69.4L382.1,69.4z M393.2,75.3c0-4.9,3.6-7.7,10-8.1l7.3-0.4v-2.3
			c0-2.9-1.9-4.5-5.5-4.5c-3,0-5,1.1-5.6,3h-5.2c0.5-4.6,4.9-7.6,11-7.6c6.8,0,10.6,3.4,10.6,9.1v18.5h-5.1v-3.8h-0.4
			c-1.7,2.8-4.8,4.4-8.1,4.2c-2.3,0.2-4.6-0.5-6.3-2C394.2,79.8,393.2,77.6,393.2,75.3L393.2,75.3z M410.5,73v-2.3l-6.6,0.4
			c-3.7,0.2-5.4,1.5-5.4,3.9c0,2.4,2.1,3.8,5,3.8c1.7,0.2,3.4-0.4,4.8-1.5C409.6,76.3,410.4,74.7,410.5,73L410.5,73z M422.9,69.4
			c0-8.5,4.4-13.9,11.2-13.9c3.4-0.2,6.7,1.7,8.3,4.7h0.4V45.4h5.3v37.6H443v-4.3h-0.4c-1.7,3-5,4.8-8.5,4.7
			C427.2,83.4,422.9,78,422.9,69.4L422.9,69.4z M428.4,69.4c0,5.7,2.7,9.2,7.2,9.2c4.5,0,7.3-3.5,7.3-9.2c0-5.6-2.8-9.2-7.3-9.2
			C431.1,60.3,428.4,63.7,428.4,69.4L428.4,69.4L428.4,69.4z M470.1,69.4c-0.5-4.8,1.9-9.5,6-12.1c4.1-2.6,9.4-2.6,13.5,0
			c4.1,2.6,6.5,7.3,6,12.1c0.5,4.8-1.8,9.5-6,12.1c-4.1,2.6-9.4,2.6-13.5,0C472,79,469.7,74.3,470.1,69.4L470.1,69.4z M490.1,69.4
			c0-5.9-2.6-9.3-7.2-9.3c-4.6,0-7.2,3.4-7.2,9.3c0,5.9,2.6,9.3,7.2,9.3C487.5,78.7,490.1,75.3,490.1,69.4L490.1,69.4z M502.8,55.9
			h5.1v4.3h0.4c1.4-3.2,4.6-5.1,8.1-4.8c2.7-0.2,5.3,0.8,7.1,2.8c1.8,2,2.7,4.6,2.3,7.3v17.5h-5.3V66.8c0-4.3-1.9-6.5-5.8-6.5
			c-1.8-0.1-3.6,0.6-4.8,1.9s-1.8,3.1-1.7,4.9v15.8h-5.3V55.9L502.8,55.9z M555.9,49.2V56h5.9v4.5h-5.9v13.9c0,2.8,1.2,4.1,3.8,4.1
			c0.7,0,1.4,0,2-0.1v4.4c-1,0.2-1.9,0.3-2.9,0.3c-5.9,0-8.3-2.1-8.3-7.3V60.5h-4.3V56h4.3v-6.8H555.9L555.9,49.2z M569,45.4h5.3
			v14.9h0.4c1.5-3.2,4.7-5.1,8.2-4.8c2.6-0.1,5.2,0.9,7,2.8s2.6,4.6,2.3,7.2v17.4h-5.3V66.8c0-4.3-2-6.5-5.8-6.5
			c-1.9-0.2-3.7,0.5-5,1.8c-1.3,1.3-2,3.2-1.8,5v15.8H569L569,45.4L569,45.4z M623.3,75.6c-1.5,5.1-6.4,8.4-11.7,7.8
			c-3.6,0.1-7.1-1.4-9.5-4.1s-3.5-6.3-3-9.9c-0.5-3.6,0.6-7.2,3-9.9c2.4-2.7,5.8-4.2,9.4-4.2c7.5,0,12.1,5.1,12.1,13.6v1.9h-19.1
			v0.3c-0.2,2,0.5,4,1.9,5.5c1.4,1.5,3.3,2.3,5.3,2.3c2.6,0.3,5.1-1,6.4-3.3L623.3,75.6L623.3,75.6z M604.6,66.9h13.6
			c0.1-1.8-0.5-3.6-1.8-5c-1.3-1.3-3-2.1-4.9-2c-1.9,0-3.7,0.7-5,2C605.3,63.3,604.5,65.1,604.6,66.9L604.6,66.9L604.6,66.9z"/>
	</defs>
	<use xlink:href="#SVGID_5_"  style="overflow:visible;fill:#FFFFFF;"/>
	<clipPath id="SVGID_6_">
		<use xlink:href="#SVGID_5_"  style="overflow:visible;"/>
	</clipPath>
</g>
<g>
	<path class="st0" d="M143.4,116.6c0.1-10.2,5.5-19.6,14.1-24.9c-5.5-7.8-14.4-12.6-23.9-12.9c-10.1-1.1-19.8,6-25,6
		c-5.2,0-13.1-5.9-21.7-5.7c-11.2,0.4-21.4,6.6-26.8,16.4c-11.6,20.1-2.9,49.6,8.2,65.9c5.6,8,12.1,16.8,20.6,16.5
		c8.3-0.3,11.4-5.3,21.5-5.3c10,0,12.9,5.3,21.5,5.1c8.9-0.1,14.6-8,19.9-16c4-5.7,7.1-11.9,9.1-18.6
		C150.3,138.5,143.4,128.1,143.4,116.6z"/>
	<path class="st0" d="M127,68c4.9-5.8,7.3-13.4,6.7-20.9c-7.4,0.8-14.3,4.3-19.2,10c-4.9,5.5-7.3,12.8-6.9,20.2
		C115.1,77.3,122.3,73.9,127,68z"/>
</g>
</svg>
