<svg width="40" height="32" viewBox="0 0 40 32" fill="none" xmlns="http://www.w3.org/2000/svg">
<path d="M31.3333 32C36.1111 32 40 28.0702 40 23.2421C40 18.9754 36.5556 15.1579 32.2222 14.5965C33.6667 10.1053 36.1111 5.38948 39.6667 0H31.4444C26.1111 7.52281 22.2222 15.607 22.2222 21.8947C22.2222 27.8456 26.2222 32 31.3333 32ZM9.11111 32C13.8889 32 17.7778 28.0702 17.7778 23.2421C17.7778 18.9754 14.3333 15.1579 10 14.5965C11.4444 10.1053 13.8889 5.38948 17.4444 0H9.22222C3.88889 7.52281 0 15.607 0 21.8947C0 27.8456 4 32 9.11111 32Z" fill="#00CCBC"/>
</svg>
