<?xml version="1.0" encoding="utf-8"?>
<!-- Generator: Adobe Illustrator 23.0.4, SVG Export Plug-In . SVG Version: 6.00 Build 0)  -->
<svg version="1.1" id="Layer_1" xmlns="http://www.w3.org/2000/svg" xmlns:xlink="http://www.w3.org/1999/xlink" x="0px" y="0px"
	 viewBox="0 0 135 40" style="enable-background:new 0 0 135 40;" xml:space="preserve">
<style type="text/css">
	.st0{fill:#FFFFFF;}
	.st1{fill:#FFFFFF;stroke:#FFFFFF;stroke-width:0.2;}
	.st2{fill:url(#Shape_1_);}
	.st3{fill:url(#SVGID_1_);}
	.st4{fill:url(#SVGID_2_);}
	.st5{fill:url(#SVGID_3_);}
	.st6{opacity:0.2;enable-background:new    ;}
	.st7{opacity:0.12;enable-background:new    ;}
	.st8{opacity:0.25;fill:#FFFFFF;enable-background:new    ;}
</style>
<title>Google Play Badge US</title>
<desc>Created with Sketch.</desc>
<path id="Background-Black" d="M5,0h125c2.8,0,5,2.2,5,5v30c0,2.8-2.2,5-5,5H5c-2.8,0-5-2.2-5-5V5C0,2.2,2.2,0,5,0z"/>
<path id="Google-Play" class="st0" d="M68.1,21.8c-2.3,0-4.2,1.9-4.2,4.3c0,2.3,1.9,4.2,4.3,4.2c2.3,0,4.2-1.9,4.2-4.2
	c0-1.1-0.4-2.2-1.2-3S69.3,21.7,68.1,21.8z M68.1,28.6c-1.1,0.1-2.1-0.5-2.5-1.5c-0.5-1-0.3-2.1,0.4-2.9c0.7-0.8,1.8-1,2.8-0.6
	c1,0.4,1.6,1.3,1.6,2.4c0,0.7-0.2,1.3-0.7,1.8S68.8,28.6,68.1,28.6z M58.8,21.8c-2.3,0-4.2,1.9-4.2,4.3s1.9,4.2,4.3,4.2
	c2.3,0,4.2-1.9,4.2-4.2c0-1.1-0.4-2.2-1.2-3S60,21.7,58.8,21.8L58.8,21.8z M58.8,28.6c-1.1,0.1-2.1-0.5-2.5-1.5
	c-0.5-1-0.3-2.1,0.4-2.9c0.7-0.8,1.8-1,2.8-0.6s1.6,1.3,1.6,2.4c0,0.7-0.2,1.3-0.7,1.8S59.5,28.6,58.8,28.6L58.8,28.6z M47.7,23.1
	v1.8h4.3c-0.1,0.8-0.4,1.6-1,2.3c-0.9,0.9-2.1,1.4-3.3,1.3c-2.7,0-4.8-2.1-4.8-4.8s2.1-4.8,4.8-4.8c1.2,0,2.4,0.4,3.3,1.3l1.3-1.3
	c-1.2-1.2-2.8-1.9-4.5-1.9c-2.4-0.1-4.7,1.1-5.9,3.2c-1.2,2.1-1.2,4.7,0,6.8c1.2,2.1,3.5,3.3,5.9,3.2c1.7,0.1,3.4-0.6,4.6-1.8
	c1-1.2,1.6-2.7,1.6-4.2c0-0.4,0-0.8-0.1-1.1L47.7,23.1z M93.1,24.5c-0.5-1.6-2-2.6-3.6-2.7c-1.1,0-2.2,0.5-2.9,1.3s-1.1,1.9-1.1,3
	c0,1.1,0.4,2.2,1.2,3c0.8,0.8,1.9,1.2,3,1.2c1.4,0,2.8-0.7,3.5-1.9l-1.4-1c-0.4,0.7-1.2,1.2-2.1,1.2c-0.9,0-1.7-0.5-2.1-1.3l5.7-2.4
	L93.1,24.5z M87.2,25.9c0-0.6,0.2-1.2,0.6-1.7c0.4-0.5,1-0.7,1.6-0.8c0.7,0,1.3,0.3,1.6,0.9L87.2,25.9z M82.6,30h1.9V17.5h-1.9V30z
	 M79.6,22.7L79.6,22.7c-0.6-0.6-1.5-1-2.3-1c-2.3,0.1-4.1,2-4.1,4.3s1.8,4.1,4.1,4.3c0.9,0,1.7-0.4,2.2-1h0.1v0.6
	c0,1.6-0.9,2.5-2.3,2.5c-1,0-1.8-0.6-2.1-1.5l-1.6,0.7c0.6,1.5,2.1,2.5,3.8,2.5c2.2,0,4-1.3,4-4.4V22h-1.7V22.7z M77.4,28.6
	c-1.3-0.1-2.4-1.2-2.4-2.6s1-2.5,2.4-2.6c0.6,0,1.3,0.3,1.7,0.8c0.4,0.5,0.6,1.1,0.6,1.8c0.1,0.6-0.2,1.3-0.6,1.8
	S78.1,28.6,77.4,28.6L77.4,28.6z M101.8,17.5h-4.5V30h1.9v-4.7h2.6c1.5,0.1,2.8-0.6,3.6-1.9s0.8-2.8,0-4S103.3,17.4,101.8,17.5
	L101.8,17.5z M101.8,23.5h-2.6v-4.3h2.7c1.2,0,2.1,1,2.1,2.1S103,23.5,101.8,23.5L101.8,23.5z M113.3,21.7c-1.4-0.1-2.7,0.7-3.3,1.9
	l1.7,0.7c0.3-0.6,1-1,1.7-0.9c0.5-0.1,1,0.1,1.3,0.4s0.6,0.7,0.7,1.2v0.1c-0.6-0.3-1.3-0.5-2-0.5c-1.8,0-3.6,1-3.6,2.8
	c0,0.8,0.4,1.5,1,2s1.4,0.8,2.1,0.7c1,0.1,1.9-0.4,2.4-1.2h0.1v1h1.8v-4.8C117.2,23,115.5,21.7,113.3,21.7L113.3,21.7z M113.1,28.5
	c-0.6,0-1.5-0.3-1.5-1.1c0-1,1.1-1.3,2-1.3c0.6,0,1.2,0.1,1.7,0.4C115.2,27.7,114.3,28.6,113.1,28.5L113.1,28.5z M123.7,22l-2.1,5.4
	h-0.1l-2.2-5.4h-2l3.3,7.6l-1.9,4.2h1.9l5.1-11.8H123.7z M106.9,30h1.9V17.5h-1.9V30z"/>
<path id="GET-IT-ON" class="st1" d="M47.4,10.2c0,0.7-0.2,1.5-0.8,2c-0.6,0.6-1.4,0.9-2.2,0.9c-1.3,0-2.4-0.8-2.9-2
	s-0.2-2.5,0.7-3.4c0.6-0.6,1.4-0.9,2.2-0.9c0.4,0,0.8,0.1,1.2,0.2c0.4,0.1,0.7,0.4,0.9,0.7l-0.5,0.5c-0.4-0.5-1-0.7-1.6-0.7
	c-0.6,0-1.2,0.3-1.7,0.7s-0.7,1.1-0.7,1.7c0,1,0.5,1.8,1.4,2.2c0.9,0.4,1.9,0.2,2.6-0.5c0.3-0.3,0.5-0.8,0.5-1.2h-2.2V9.8h2.9
	C47.4,9.9,47.4,10.1,47.4,10.2z M52,7.7h-2.7v1.9h2.5v0.7h-2.5v1.9H52V13h-3.5V7H52V7.7z M55.3,13h-0.8V7.7h-1.7V7H57v0.7h-1.7V13z
	 M59.9,13V7h0.8v6H59.9z M64.1,13h-0.8V7.7h-1.7V7h4.1v0.7h-1.7V13z M73.6,12.2c-1.2,1.2-3.2,1.2-4.4,0C68,11,68,9,69.2,7.8
	c0.6-0.6,1.4-0.9,2.2-0.9c0.8,0,1.6,0.3,2.2,0.9C74.8,9,74.8,11,73.6,12.2z M69.8,11.7c0.9,0.9,2.4,0.9,3.3,0c0.9-1,0.9-2.5,0-3.4
	c-0.9-0.9-2.4-0.9-3.3,0C68.9,9.3,68.9,10.7,69.8,11.7z M75.6,13V7h0.9l2.9,4.7V7h0.8v6h-0.8l-3.1-4.9V13H75.6z"/>
<g id="Icon" transform="translate(9.000000, 7.000000)">
	
		<linearGradient id="Shape_1_" gradientUnits="userSpaceOnUse" x1="-575.4976" y1="383.4651" x2="-576.796" y2="382.7955" gradientTransform="matrix(12.9236 0 0 -25.06 7450.2915 9611.3506)">
		<stop  offset="0" style="stop-color:#00A0FF"/>
		<stop  offset="1.000000e-02" style="stop-color:#00A1FF"/>
		<stop  offset="0.26" style="stop-color:#00BEFF"/>
		<stop  offset="0.51" style="stop-color:#00D2FF"/>
		<stop  offset="0.76" style="stop-color:#00DFFF"/>
		<stop  offset="1" style="stop-color:#00E3FF"/>
	</linearGradient>
	<path id="Shape" class="st2" d="M1.4,0.5C1.1,0.9,0.9,1.4,1,1.9v22.1c0,0.5,0.1,1,0.5,1.4l0.1,0.1l12.4-12.4v-0.3L1.4,0.5L1.4,0.5z
		"/>
	
		<linearGradient id="SVGID_1_" gradientUnits="userSpaceOnUse" x1="-562.332" y1="355.0934" x2="-564.7153" y2="355.0934" gradientTransform="matrix(10.15 0 0 -8.56 5732.5 3052.6001)">
		<stop  offset="0" style="stop-color:#FFE000"/>
		<stop  offset="0.41" style="stop-color:#FFBD00"/>
		<stop  offset="0.78" style="stop-color:#FFA500"/>
		<stop  offset="1" style="stop-color:#FF9C00"/>
	</linearGradient>
	<path class="st3" d="M18,17.3l-4.1-4.1v-0.3L18,8.7l0.1,0.1l4.9,2.8c1.4,0.8,1.4,2.1,0,2.9l-4.9,2.8L18,17.3z"/>
	
		<linearGradient id="SVGID_2_" gradientUnits="userSpaceOnUse" x1="-586.2896" y1="369.607" x2="-587.6533" y2="367.8387" gradientTransform="matrix(16.69 0 0 -12.8658 9800.999 4770.5771)">
		<stop  offset="0" style="stop-color:#FF3A44"/>
		<stop  offset="1" style="stop-color:#C31162"/>
	</linearGradient>
	<path class="st4" d="M18.1,17.2L13.9,13L1.4,25.5C2,26,2.9,26,3.5,25.5L18.1,17.2"/>
	
		<linearGradient id="SVGID_3_" gradientUnits="userSpaceOnUse" x1="-587.3393" y1="370.326" x2="-586.7306" y2="369.5363" gradientTransform="matrix(16.69 0 0 -12.8658 9800.9902 4757.7119)">
		<stop  offset="0" style="stop-color:#32A071"/>
		<stop  offset="7.000000e-02" style="stop-color:#2DA771"/>
		<stop  offset="0.48" style="stop-color:#15CF74"/>
		<stop  offset="0.8" style="stop-color:#06E775"/>
		<stop  offset="1" style="stop-color:#00F076"/>
	</linearGradient>
	<path class="st5" d="M18.1,8.8L3.5,0.5C2.9,0,2,0,1.4,0.5L13.9,13L18.1,8.8z"/>
	<path class="st6" d="M18,17.1L3.5,25.4c-0.6,0.4-1.4,0.4-2,0l-0.1,0.1l0.1,0.1c0.6,0.4,1.4,0.4,2,0l14.6-8.3L18,17.1z"/>
	<path class="st7" d="M1.4,25.3c-0.3-0.4-0.5-0.9-0.5-1.4v0.1c0,0.5,0.1,1,0.5,1.4V25.3L1.4,25.3z M23,14.3l-5,2.8l0.1,0.1l4.9-2.8
		c0.6-0.3,0.9-0.8,1-1.4C23.9,13.6,23.5,14,23,14.3z"/>
	<path class="st8" d="M3.5,0.6L23,11.7c0.5,0.3,0.9,0.7,1,1.3c-0.1-0.6-0.4-1.2-1-1.4L3.5,0.5C2.1-0.3,1,0.3,1,2v0.1
		C1,0.5,2.1-0.2,3.5,0.6z"/>
</g>
</svg>
